<mxfile host="app.diagrams.net" modified="2022-09-20T19:55:11.280Z" agent="5.0 (Windows NT 10.0; Win64; x64) AppleWebKit/537.36 (KHTML, like Gecko) Chrome/105.0.0.0 Safari/537.36" etag="YyrYjE-VUzk8xYYZ-6in" version="20.3.2" type="github">
  <diagram id="C5RBs43oDa-KdzZeNtuy" name="Page-1">
    <mxGraphModel dx="1422" dy="762" grid="1" gridSize="10" guides="1" tooltips="1" connect="1" arrows="1" fold="1" page="1" pageScale="1" pageWidth="827" pageHeight="1169" math="0" shadow="0">
      <root>
        <mxCell id="WIyWlLk6GJQsqaUBKTNV-0" />
        <mxCell id="WIyWlLk6GJQsqaUBKTNV-1" parent="WIyWlLk6GJQsqaUBKTNV-0" />
        <mxCell id="jY6YjFH6pbyxC7n5taDn-2" value="" style="endArrow=none;dashed=1;html=1;rounded=0;" edge="1" parent="WIyWlLk6GJQsqaUBKTNV-1">
          <mxGeometry width="50" height="50" relative="1" as="geometry">
            <mxPoint x="630" y="1630" as="sourcePoint" />
            <mxPoint x="630" y="40" as="targetPoint" />
          </mxGeometry>
        </mxCell>
        <mxCell id="jY6YjFH6pbyxC7n5taDn-3" value="Пользователь" style="text;html=1;strokeColor=none;fillColor=none;align=center;verticalAlign=middle;whiteSpace=wrap;rounded=0;" vertex="1" parent="WIyWlLk6GJQsqaUBKTNV-1">
          <mxGeometry x="510" y="10" width="60" height="30" as="geometry" />
        </mxCell>
        <mxCell id="jY6YjFH6pbyxC7n5taDn-4" value="Бот" style="text;html=1;strokeColor=none;fillColor=none;align=center;verticalAlign=middle;whiteSpace=wrap;rounded=0;" vertex="1" parent="WIyWlLk6GJQsqaUBKTNV-1">
          <mxGeometry x="690" y="10" width="60" height="30" as="geometry" />
        </mxCell>
        <mxCell id="jY6YjFH6pbyxC7n5taDn-7" style="edgeStyle=orthogonalEdgeStyle;rounded=0;orthogonalLoop=1;jettySize=auto;html=1;exitX=1;exitY=0.5;exitDx=0;exitDy=0;entryX=0.5;entryY=0;entryDx=0;entryDy=0;" edge="1" parent="WIyWlLk6GJQsqaUBKTNV-1" source="jY6YjFH6pbyxC7n5taDn-5" target="jY6YjFH6pbyxC7n5taDn-6">
          <mxGeometry relative="1" as="geometry" />
        </mxCell>
        <mxCell id="jY6YjFH6pbyxC7n5taDn-5" value="Шлет иницуирующую команду" style="rounded=0;whiteSpace=wrap;html=1;" vertex="1" parent="WIyWlLk6GJQsqaUBKTNV-1">
          <mxGeometry x="480" y="60" width="120" height="60" as="geometry" />
        </mxCell>
        <mxCell id="jY6YjFH6pbyxC7n5taDn-9" style="edgeStyle=orthogonalEdgeStyle;rounded=0;orthogonalLoop=1;jettySize=auto;html=1;exitX=0.5;exitY=1;exitDx=0;exitDy=0;" edge="1" parent="WIyWlLk6GJQsqaUBKTNV-1" source="jY6YjFH6pbyxC7n5taDn-6" target="jY6YjFH6pbyxC7n5taDn-8">
          <mxGeometry relative="1" as="geometry" />
        </mxCell>
        <mxCell id="jY6YjFH6pbyxC7n5taDn-6" value="Отвечает: &lt;br&gt;&quot;Пришлите ссылку на товар&quot;" style="rounded=0;whiteSpace=wrap;html=1;" vertex="1" parent="WIyWlLk6GJQsqaUBKTNV-1">
          <mxGeometry x="695" y="140" width="120" height="60" as="geometry" />
        </mxCell>
        <mxCell id="jY6YjFH6pbyxC7n5taDn-11" style="edgeStyle=orthogonalEdgeStyle;rounded=0;orthogonalLoop=1;jettySize=auto;html=1;exitX=0.5;exitY=1;exitDx=0;exitDy=0;entryX=0.5;entryY=0;entryDx=0;entryDy=0;" edge="1" parent="WIyWlLk6GJQsqaUBKTNV-1" source="jY6YjFH6pbyxC7n5taDn-8" target="jY6YjFH6pbyxC7n5taDn-10">
          <mxGeometry relative="1" as="geometry" />
        </mxCell>
        <mxCell id="jY6YjFH6pbyxC7n5taDn-8" value="Пользователь отправляет ссылку" style="rounded=0;whiteSpace=wrap;html=1;" vertex="1" parent="WIyWlLk6GJQsqaUBKTNV-1">
          <mxGeometry x="480" y="240" width="120" height="60" as="geometry" />
        </mxCell>
        <mxCell id="jY6YjFH6pbyxC7n5taDn-13" style="edgeStyle=orthogonalEdgeStyle;rounded=0;orthogonalLoop=1;jettySize=auto;html=1;exitX=0.5;exitY=1;exitDx=0;exitDy=0;entryX=0.5;entryY=0;entryDx=0;entryDy=0;" edge="1" parent="WIyWlLk6GJQsqaUBKTNV-1" source="jY6YjFH6pbyxC7n5taDn-10" target="jY6YjFH6pbyxC7n5taDn-12">
          <mxGeometry relative="1" as="geometry" />
        </mxCell>
        <mxCell id="jY6YjFH6pbyxC7n5taDn-10" value="Парсит сайт по ссылке. Находит название и цену" style="shape=process;whiteSpace=wrap;html=1;backgroundOutline=1;" vertex="1" parent="WIyWlLk6GJQsqaUBKTNV-1">
          <mxGeometry x="695" y="340" width="120" height="60" as="geometry" />
        </mxCell>
        <mxCell id="jY6YjFH6pbyxC7n5taDn-15" style="edgeStyle=orthogonalEdgeStyle;rounded=0;orthogonalLoop=1;jettySize=auto;html=1;exitX=0.5;exitY=1;exitDx=0;exitDy=0;entryX=0.5;entryY=0;entryDx=0;entryDy=0;" edge="1" parent="WIyWlLk6GJQsqaUBKTNV-1" source="jY6YjFH6pbyxC7n5taDn-12" target="jY6YjFH6pbyxC7n5taDn-14">
          <mxGeometry relative="1" as="geometry" />
        </mxCell>
        <mxCell id="jY6YjFH6pbyxC7n5taDn-12" value="Спрашивает у пользователя:&lt;br&gt;&quot;Отслеживать товар $name по цене $price?&quot;" style="rounded=0;whiteSpace=wrap;html=1;" vertex="1" parent="WIyWlLk6GJQsqaUBKTNV-1">
          <mxGeometry x="670" y="450" width="170" height="60" as="geometry" />
        </mxCell>
        <mxCell id="jY6YjFH6pbyxC7n5taDn-17" style="edgeStyle=orthogonalEdgeStyle;rounded=0;orthogonalLoop=1;jettySize=auto;html=1;exitX=0.5;exitY=1;exitDx=0;exitDy=0;entryX=0.5;entryY=0;entryDx=0;entryDy=0;" edge="1" parent="WIyWlLk6GJQsqaUBKTNV-1" source="jY6YjFH6pbyxC7n5taDn-14">
          <mxGeometry relative="1" as="geometry">
            <mxPoint x="755" y="748" as="targetPoint" />
          </mxGeometry>
        </mxCell>
        <mxCell id="jY6YjFH6pbyxC7n5taDn-14" value="Выбор пользователя" style="rhombus;whiteSpace=wrap;html=1;shadow=0;fontFamily=Helvetica;fontSize=12;align=center;strokeWidth=1;spacing=6;spacingTop=-4;" vertex="1" parent="WIyWlLk6GJQsqaUBKTNV-1">
          <mxGeometry x="510" y="560" width="100" height="80" as="geometry" />
        </mxCell>
        <mxCell id="jY6YjFH6pbyxC7n5taDn-18" value="Да" style="text;html=1;strokeColor=none;fillColor=none;align=center;verticalAlign=middle;whiteSpace=wrap;rounded=0;" vertex="1" parent="WIyWlLk6GJQsqaUBKTNV-1">
          <mxGeometry x="695" y="660" width="60" height="30" as="geometry" />
        </mxCell>
        <mxCell id="jY6YjFH6pbyxC7n5taDn-21" style="edgeStyle=orthogonalEdgeStyle;rounded=0;orthogonalLoop=1;jettySize=auto;html=1;exitX=0.5;exitY=1;exitDx=0;exitDy=0;" edge="1" parent="WIyWlLk6GJQsqaUBKTNV-1" source="jY6YjFH6pbyxC7n5taDn-19" target="jY6YjFH6pbyxC7n5taDn-20">
          <mxGeometry relative="1" as="geometry" />
        </mxCell>
        <mxCell id="jY6YjFH6pbyxC7n5taDn-19" value="Спрашивает у пользователя:&lt;br&gt;&quot;При каком изменении цены уведомить?&quot;&lt;br&gt;Инструкция по вводу триггерных значений. 0 - уведомить при любых изменений" style="rounded=0;whiteSpace=wrap;html=1;" vertex="1" parent="WIyWlLk6GJQsqaUBKTNV-1">
          <mxGeometry x="670" y="750" width="170" height="110" as="geometry" />
        </mxCell>
        <mxCell id="jY6YjFH6pbyxC7n5taDn-23" style="edgeStyle=orthogonalEdgeStyle;rounded=0;orthogonalLoop=1;jettySize=auto;html=1;exitX=0.5;exitY=1;exitDx=0;exitDy=0;" edge="1" parent="WIyWlLk6GJQsqaUBKTNV-1" source="jY6YjFH6pbyxC7n5taDn-20" target="jY6YjFH6pbyxC7n5taDn-22">
          <mxGeometry relative="1" as="geometry" />
        </mxCell>
        <mxCell id="jY6YjFH6pbyxC7n5taDn-20" value="Пользователь число" style="rounded=0;whiteSpace=wrap;html=1;" vertex="1" parent="WIyWlLk6GJQsqaUBKTNV-1">
          <mxGeometry x="480" y="910" width="120" height="60" as="geometry" />
        </mxCell>
        <mxCell id="jY6YjFH6pbyxC7n5taDn-25" style="edgeStyle=orthogonalEdgeStyle;rounded=0;orthogonalLoop=1;jettySize=auto;html=1;exitX=0.5;exitY=1;exitDx=0;exitDy=0;entryX=0.5;entryY=0;entryDx=0;entryDy=0;" edge="1" parent="WIyWlLk6GJQsqaUBKTNV-1" source="jY6YjFH6pbyxC7n5taDn-22" target="jY6YjFH6pbyxC7n5taDn-24">
          <mxGeometry relative="1" as="geometry" />
        </mxCell>
        <mxCell id="jY6YjFH6pbyxC7n5taDn-22" value="Заносит в БД:&lt;br&gt;1. ID пользователя&lt;br&gt;2. Ссылку на товар&lt;br&gt;3. Название&lt;br&gt;4. Начальная цена&lt;br&gt;5. Триггерное значение" style="shape=process;whiteSpace=wrap;html=1;backgroundOutline=1;" vertex="1" parent="WIyWlLk6GJQsqaUBKTNV-1">
          <mxGeometry x="695" y="1030" width="305" height="120" as="geometry" />
        </mxCell>
        <mxCell id="jY6YjFH6pbyxC7n5taDn-27" style="edgeStyle=orthogonalEdgeStyle;rounded=0;orthogonalLoop=1;jettySize=auto;html=1;exitX=0.5;exitY=1;exitDx=0;exitDy=0;entryX=0.5;entryY=0;entryDx=0;entryDy=0;" edge="1" parent="WIyWlLk6GJQsqaUBKTNV-1" source="jY6YjFH6pbyxC7n5taDn-24" target="jY6YjFH6pbyxC7n5taDn-26">
          <mxGeometry relative="1" as="geometry" />
        </mxCell>
        <mxCell id="jY6YjFH6pbyxC7n5taDn-24" value="Раз в n времени бот:&lt;br&gt;1. Парсит ссылку&lt;br&gt;2. Определяет текущую цену&lt;br&gt;3. Заносит цену в БД&lt;br&gt;4. Сравнивает с начальной ценой с учетом триггерного значения" style="shape=process;whiteSpace=wrap;html=1;backgroundOutline=1;" vertex="1" parent="WIyWlLk6GJQsqaUBKTNV-1">
          <mxGeometry x="695" y="1210" width="305" height="120" as="geometry" />
        </mxCell>
        <mxCell id="jY6YjFH6pbyxC7n5taDn-28" style="edgeStyle=orthogonalEdgeStyle;rounded=0;orthogonalLoop=1;jettySize=auto;html=1;exitX=1;exitY=0.5;exitDx=0;exitDy=0;entryX=1;entryY=0.5;entryDx=0;entryDy=0;" edge="1" parent="WIyWlLk6GJQsqaUBKTNV-1" source="jY6YjFH6pbyxC7n5taDn-26" target="jY6YjFH6pbyxC7n5taDn-24">
          <mxGeometry relative="1" as="geometry">
            <Array as="points">
              <mxPoint x="1120" y="1430" />
              <mxPoint x="1120" y="1270" />
            </Array>
          </mxGeometry>
        </mxCell>
        <mxCell id="jY6YjFH6pbyxC7n5taDn-32" style="edgeStyle=orthogonalEdgeStyle;rounded=0;orthogonalLoop=1;jettySize=auto;html=1;exitX=0.5;exitY=1;exitDx=0;exitDy=0;" edge="1" parent="WIyWlLk6GJQsqaUBKTNV-1" source="jY6YjFH6pbyxC7n5taDn-26" target="jY6YjFH6pbyxC7n5taDn-31">
          <mxGeometry relative="1" as="geometry" />
        </mxCell>
        <mxCell id="jY6YjFH6pbyxC7n5taDn-26" value="Уведомить пользователя" style="rhombus;whiteSpace=wrap;html=1;shadow=0;fontFamily=Helvetica;fontSize=12;align=center;strokeWidth=1;spacing=6;spacingTop=-4;" vertex="1" parent="WIyWlLk6GJQsqaUBKTNV-1">
          <mxGeometry x="797.5" y="1390" width="100" height="80" as="geometry" />
        </mxCell>
        <mxCell id="jY6YjFH6pbyxC7n5taDn-29" value="Нет" style="text;html=1;strokeColor=none;fillColor=none;align=center;verticalAlign=middle;whiteSpace=wrap;rounded=0;" vertex="1" parent="WIyWlLk6GJQsqaUBKTNV-1">
          <mxGeometry x="890" y="1400" width="60" height="30" as="geometry" />
        </mxCell>
        <mxCell id="jY6YjFH6pbyxC7n5taDn-30" value="Да" style="text;html=1;strokeColor=none;fillColor=none;align=center;verticalAlign=middle;whiteSpace=wrap;rounded=0;" vertex="1" parent="WIyWlLk6GJQsqaUBKTNV-1">
          <mxGeometry x="850" y="1480" width="60" height="30" as="geometry" />
        </mxCell>
        <mxCell id="jY6YjFH6pbyxC7n5taDn-31" value="Сообщение пользователю:&lt;br&gt;&quot;Цена на товар $name достигла значения: $new_price&quot;" style="rounded=0;whiteSpace=wrap;html=1;" vertex="1" parent="WIyWlLk6GJQsqaUBKTNV-1">
          <mxGeometry x="762.5" y="1530" width="170" height="60" as="geometry" />
        </mxCell>
      </root>
    </mxGraphModel>
  </diagram>
</mxfile>
